<?xml version="1.0" standalone="no"?>
<!DOCTYPE svg PUBLIC "-//W3C//DTD SVG 1.1//EN" "http://www.w3.org/Graphics/SVG/1.1/DTD/svg11.dtd" >
<svg xmlns="http://www.w3.org/2000/svg">
<metadata>Generated by IcoMoon</metadata>
<defs>
<font id="icomoon" horiz-adv-x="1024">
<font-face units-per-em="1024" ascent="960" descent="-64" />
<missing-glyph horiz-adv-x="1024" />
<glyph unicode="&#x20;" horiz-adv-x="512" d="" />
<glyph unicode="&#xe900;" glyph-name="add-category" d="M910.225 960h-796.448c-30.175 0-59.115-11.987-80.453-33.325s-33.325-50.277-33.325-80.453v-796.448c0-30.174 11.987-59.11 33.325-80.452 21.338-21.333 50.277-33.323 80.453-33.323h796.448c62.575 0 113.775 51.2 113.775 113.775v796.448c0 62.577-51.2 113.777-113.775 113.777zM910.225 49.775h-796.448v796.448h796.448v-796.448zM455.111 163.556h113.778v227.555h227.555v113.778h-227.555v227.555h-113.778v-227.555h-227.555v-113.778h227.555v-227.555z" />
<glyph unicode="&#xe901;" glyph-name="add-icon" d="M0 525.575h434.425v434.425h-434.425v-434.425zM108.606 851.394h217.212v-217.212h-217.212v217.212zM543.030 960v-434.425h434.425v434.425h-434.425zM868.848 634.182h-217.212v217.212h217.212v-217.212zM0-17.455h434.425v434.425h-434.425v-434.425zM108.606 308.364h217.212v-217.212h-217.212v217.212zM814.545 416.97h-108.606v-162.909h-162.909v-108.606h162.909v-162.909h108.606v162.909h162.909v108.606h-162.909v162.909z" />
<glyph unicode="&#xe902;" glyph-name="add" d="M929.684 395.792h-835.368c-28.542 0-52.211 23.665-52.211 52.208s23.669 52.211 52.211 52.211h835.368c28.543 0 52.208-23.669 52.208-52.211s-23.665-52.208-52.208-52.208zM512-21.892c-28.542 0-52.211 23.665-52.211 52.208v835.368c0 28.542 23.669 52.211 52.211 52.211s52.208-23.669 52.208-52.211v-835.368c0-28.543-23.665-52.208-52.208-52.208z" />
<glyph unicode="&#xe904;" glyph-name="calender" d="M341.333 714.667c-17.493 0-32 14.507-32 32v128c0 17.493 14.507 32 32 32s32-14.507 32-32v-128c0-17.493-14.507-32-32-32zM682.667 714.667c-17.493 0-32 14.507-32 32v128c0 17.493 14.507 32 32 32s32-14.507 32-32v-128c0-17.493-14.507-32-32-32zM362.667 341.329c-5.547 0-11.093 1.28-16.213 3.413-5.547 2.133-9.813 5.12-14.080 8.96-7.68 8.107-12.373 18.773-12.373 30.293 0 5.547 1.28 11.093 3.413 16.213s5.12 9.813 8.96 14.080c4.267 3.84 8.533 6.827 14.080 8.96 15.36 6.4 34.56 2.987 46.507-8.96 7.68-8.107 12.373-19.2 12.373-30.293 0-2.56-0.427-5.547-0.853-8.533-0.427-2.56-1.28-5.12-2.56-7.68-0.853-2.56-2.133-5.12-3.84-7.68-1.28-2.133-3.413-4.267-5.12-6.4-8.107-7.68-19.2-12.373-30.293-12.373zM512 341.333c-5.547 0-11.093 1.28-16.213 3.413-5.547 2.133-9.813 5.12-14.080 8.96-7.68 8.107-12.373 18.773-12.373 30.293 0 5.547 1.28 11.093 3.413 16.213s5.12 9.813 8.96 14.080c4.267 3.84 8.533 6.827 14.080 8.96 15.36 6.827 34.56 2.987 46.507-8.96 7.68-8.107 12.373-19.2 12.373-30.293 0-2.56-0.427-5.547-0.853-8.533-0.427-2.56-1.28-5.12-2.56-7.68-0.853-2.56-2.133-5.12-3.84-7.68-1.28-2.133-3.413-4.267-5.12-6.4-8.107-7.68-19.2-12.373-30.293-12.373zM661.333 341.333c-5.547 0-11.093 1.28-16.213 3.413-5.547 2.133-9.813 5.12-14.080 8.96-1.707 2.133-3.413 4.267-5.12 6.4-1.707 2.56-2.987 5.12-3.84 7.68-1.28 2.56-2.133 5.12-2.56 7.68-0.427 2.987-0.853 5.973-0.853 8.533 0 11.093 4.693 22.187 12.373 30.293 4.267 3.84 8.533 6.827 14.080 8.96 15.787 6.827 34.56 2.987 46.507-8.96 7.68-8.107 12.373-19.2 12.373-30.293 0-2.56-0.427-5.547-0.853-8.533-0.427-2.56-1.28-5.12-2.56-7.68-0.853-2.56-2.133-5.12-3.84-7.68-1.28-2.133-3.413-4.267-5.12-6.4-8.107-7.68-19.2-12.373-30.293-12.373zM362.667 192.004c-5.547 0-11.093 1.276-16.213 3.409s-9.813 5.124-14.080 8.964c-7.68 8.107-12.373 19.2-12.373 30.293 0 5.547 1.28 11.093 3.413 16.213 2.133 5.547 5.12 10.236 8.96 14.076 15.787 15.787 44.8 15.787 60.587 0 7.68-8.107 12.373-19.196 12.373-30.289s-4.693-22.187-12.373-30.293c-8.107-7.68-19.2-12.373-30.293-12.373zM512 192.004c-11.093 0-22.187 4.693-30.293 12.373-7.68 8.107-12.373 19.2-12.373 30.293 0 5.547 1.28 11.093 3.413 16.213 2.133 5.547 5.12 10.236 8.96 14.076 15.787 15.787 44.8 15.787 60.587 0 3.84-3.84 6.827-8.529 8.96-14.076 2.133-5.12 3.413-10.667 3.413-16.213 0-11.093-4.693-22.187-12.373-30.293-8.107-7.68-19.2-12.373-30.293-12.373zM661.333 192c-11.093 0-22.187 4.693-30.293 12.373-3.84 3.84-6.827 8.533-8.96 14.080-2.133 5.12-3.413 10.667-3.413 16.213s1.28 11.093 3.413 16.213c2.133 5.547 5.12 10.24 8.96 14.080 9.813 9.813 24.747 14.507 38.4 11.52 2.987-0.427 5.547-1.28 8.107-2.56 2.56-0.853 5.12-2.133 7.68-3.84 2.133-1.28 4.267-3.413 6.4-5.12 7.68-8.107 12.373-19.2 12.373-30.293s-4.693-22.187-12.373-30.293c-8.107-7.68-19.2-12.373-30.293-12.373zM874.667 540.161h-725.333c-17.493 0-32 14.507-32 32s14.507 32 32 32h725.333c17.493 0 32-14.507 32-32s-14.507-32-32-32zM682.667-10.667h-341.333c-155.733 0-245.333 89.6-245.333 245.333v362.667c0 155.733 89.6 245.333 245.333 245.333h341.333c155.733 0 245.333-89.6 245.333-245.333v-362.667c0-155.733-89.6-245.333-245.333-245.333zM341.333 778.667c-122.027 0-181.333-59.307-181.333-181.333v-362.667c0-122.027 59.307-181.333 181.333-181.333h341.333c122.027 0 181.333 59.307 181.333 181.333v362.667c0 122.027-59.307 181.333-181.333 181.333h-341.333z" />
<glyph unicode="&#xe905;" glyph-name="circle" d="M512-64c-282.773 0-512 229.229-512 512 0 282.769 229.227 512 512 512 282.771 0 512-229.231 512-512 0-282.771-229.229-512-512-512zM512 0c247.424 0 448 200.576 448 448 0 247.422-200.576 448-448 448-247.422 0-448-200.578-448-448 0-247.424 200.578-448 448-448z" />
<glyph unicode="&#xe906;" glyph-name="design" d="M438.857 230.549c-25.353 2.831-50.292 8.598-74.313 17.189 0.731 17.262 1.121 35.255 1.17 53.98v24.649c22.675-10.825 47.324-18.359 73.143-22.089v180.299c0 29.098 11.559 57.004 32.134 77.58s48.482 32.136 77.58 32.136h180.297c-5.833 40.529-21.303 79.069-45.111 112.383s-55.261 60.431-91.717 79.075c-36.457 18.644-76.854 28.271-117.8 28.073s-81.248-10.216-117.522-29.212c-5.792 23.921-15.32 46.779-28.233 67.732 47.416 23.667 99.846 35.535 152.833 34.595s104.962-14.661 151.508-39.996c46.547-25.335 86.288-61.534 115.846-105.521s48.056-94.461 53.925-147.129h111.69c29.099 0 57.003-11.559 77.577-32.136s32.137-48.482 32.137-77.58v-365.718c0-29.097-11.563-57.001-32.137-77.583-20.574-20.574-48.478-32.128-77.577-32.128h-365.716c-29.098 0-57.004 11.554-77.58 32.128-20.575 20.582-32.134 48.486-32.134 77.583v111.69zM802.597 521.149c-8.285-74.221-41.564-143.418-94.372-196.227s-122.004-86.088-196.225-94.373v-111.69c0-9.7 3.853-19.002 10.712-25.863 6.858-6.852 16.16-10.709 25.859-10.709h365.716c9.694 0 19.004 3.857 25.856 10.709 6.861 6.861 10.718 16.163 10.718 25.863v365.718c0 9.699-3.857 19.001-10.718 25.86-6.852 6.858-16.162 10.711-25.856 10.711h-111.69zM728.869 521.149h-180.297c-9.699 0-19.001-3.853-25.859-10.711s-10.712-16.161-10.712-25.86v-180.299c54.718 7.886 105.414 33.272 144.505 72.364s64.478 89.789 72.364 144.507zM277.577 480.115c-7.68 28.233-20.115 56.54-41.472 78.263 34.523 32.695 56.466 84.774 56.466 145.629 0 50.982-10.313 86.017-28.965 114.031-8.299 12.031-17.862 23.139-28.525 33.134l-12.435 11.703c-4.461 4.169-8.557 7.973-13.897 13.312-10.972 10.972-12.215 19.749-12.215 24.357-0.029 2.565 0.392 5.115 1.243 7.534 3.344 7.232 4.235 15.358 2.538 23.143s-5.892 14.802-11.944 19.985c-6.052 5.183-13.63 8.247-21.583 8.727s-15.846-1.65-22.478-6.067l-0.146-0.073-3.072-2.048-7.461-5.486c-8.276-6.271-16.327-12.834-24.137-19.676-18.432-16.092-42.203-40.010-59.099-68.536-14.768-23.639-26.607-48.986-35.255-75.484-8.777-26.258-15.141-54.711-15.141-78.556 0-60.855 21.943-112.86 56.466-145.702-21.358-21.651-33.792-49.958-41.472-78.264-14.994-55.003-14.994-123.028-14.994-175.618v-2.706c0-150.53 28.16-239.911 60.050-293.082 16.018-26.633 32.695-43.819 46.665-54.639 7.465-5.777 15.562-10.684 24.137-14.635 4.969-1.809 10.161-2.944 15.433-3.362 6.144 0 15.433 3.362 15.433 3.362 8.575 3.951 16.673 8.858 24.137 14.635 13.897 10.82 30.72 28.006 46.665 54.639 31.89 53.094 60.050 142.553 60.050 293.082v2.633c0 52.663 0 120.614-14.994 175.764zM108.763 507.179c8.265 8.338 19.31 13.97 37.523 13.97 18.285 0 29.257-5.705 37.522-13.897 9.216-9.289 17.189-24.357 23.186-46.373 12.142-44.691 12.435-103.351 12.435-159.16 0-142.045-26.697-217.238-49.664-255.493-8.777-14.626-17.043-24.064-23.479-29.986-9.1 8.926-16.993 19.012-23.479 29.986-22.967 38.332-49.664 113.448-49.664 255.493 0 55.809 0.293 114.47 12.435 159.16 5.997 21.943 13.97 37.011 23.186 46.3zM146.286 594.293c-28.16 0-73.143 31.305-73.143 109.715 0 12.654 3.803 32.695 11.41 55.37 6.914 21.414 16.472 41.881 28.453 60.928 6.363 10.753 14.628 21.212 23.552 30.793 4.973-8.972 11.8-17.871 20.48-26.697 5.339-5.339 12.288-11.776 18.212-17.335l9.070-8.485c7.68-7.461 13.605-13.971 18.359-21.211 8.777-13.093 16.75-32.915 16.75-73.364 0-78.409-44.983-109.715-73.143-109.715z" />
<glyph unicode="&#xe907;" glyph-name="down" d="M935.73 638.662c26.66 26.66 26.66 69.884 0 96.544s-69.884 26.66-96.544 0l-361.328-361.328-361.329 361.328c-26.66 26.66-69.884 26.66-96.544 0s-26.66-69.884 0-96.544l409.6-409.6c26.66-26.66 69.884-26.66 96.544 0l409.6 409.6z" />
<glyph unicode="&#xe908;" glyph-name="focus" d="M512-10.667c-253.013 0-458.667 205.653-458.667 458.667s205.653 458.667 458.667 458.667c253.013 0 458.667-205.653 458.667-458.667s-205.653-458.667-458.667-458.667zM512 842.667c-217.6 0-394.667-177.067-394.667-394.667s177.067-394.667 394.667-394.667c217.6 0 394.667 177.067 394.667 394.667s-177.067 394.667-394.667 394.667zM670.289 280.32c-5.547 0-11.093 1.28-16.213 4.693l-132.267 78.933c-32.853 19.627-57.173 62.72-57.173 100.693v174.933c0 17.493 14.507 32 32 32s32-14.507 32-32v-174.933c0-15.36 12.8-37.973 26.027-45.653l132.267-78.933c15.36-8.96 20.053-28.587 11.093-43.947-6.4-10.24-17.067-15.787-27.733-15.787z" />
<glyph unicode="&#xe909;" glyph-name="go" d="M230.825 32c-47.787 0-78.080 16.213-97.28 35.413-37.547 37.547-64 117.333 20.48 286.72l37.12 73.813c4.693 9.813 4.693 30.293 0 40.107l-37.12 73.812c-84.907 169.387-58.027 249.6-20.48 286.72 37.12 37.547 117.333 64.427 286.293-20.48l365.225-182.613c90.88-45.227 140.8-108.372 140.8-177.492s-49.92-132.267-140.373-177.493l-365.225-182.613c-82.773-41.387-144.213-55.893-189.44-55.893zM230.825 799.999c-23.040 0-40.96-5.547-52.053-16.64-31.147-30.72-18.773-110.507 32.427-212.48l37.12-74.239c13.653-27.733 13.653-69.547 0-97.28l-37.12-73.813c-51.2-102.4-63.573-181.76-32.427-212.48 30.72-31.147 110.507-18.773 212.907 32.427l365.225 182.613c66.987 33.28 104.96 77.227 104.96 120.32s-38.4 87.039-105.387 120.319l-365.225 182.187c-64.853 32.427-120.747 49.067-160.427 49.067zM462.502 416h-230.398c-17.493 0-32 14.507-32 32s14.507 32 32 32h230.398c17.493 0 32-14.507 32-32s-14.507-32-32-32z" />
<glyph unicode="&#xe90a;" glyph-name="home-page" d="M855.040 669.011l-245.76 171.947c-66.987 46.933-169.813 44.373-234.24-5.547l-213.76-166.827c-42.667-33.28-76.373-101.547-76.373-155.308v-294.4c0-108.8 88.32-197.547 197.12-197.547h459.947c108.8 0 197.12 88.32 197.12 197.12v289.28c0 57.602-37.12 128.428-84.053 161.282zM544 191.996c0-17.493-14.507-32-32-32s-32 14.507-32 32v128c0 17.493 14.507 32 32 32s32-14.507 32-32v-128z" />
<glyph unicode="&#xe90b;" glyph-name="home" d="M906.522 660.142l-298.67 261.831c-27.378 24.488-62.822 38.027-99.555 38.027s-72.177-13.538-99.556-38.027l-298.666-261.831c-15.811-14.141-28.428-31.487-37.011-50.885s-12.935-40.401-12.767-61.612v-435.058c0-39.609 15.733-77.591 43.739-105.597s65.989-43.733 105.595-43.733h597.333c39.606 0 77.589 15.727 105.591 43.733 28.006 28.006 43.742 65.988 43.742 105.597v435.556c0.094 21.128-4.292 42.035-12.868 61.342-8.585 19.307-21.163 36.573-36.907 50.658v0zM607.852 62.805h-199.111v248.893c0 13.202 5.245 25.863 14.58 35.198s21.996 14.579 35.197 14.579h99.556c13.202 0 25.863-5.245 35.198-14.579s14.579-21.996 14.579-35.198v-248.893zM856.741 112.586c0-13.199-5.245-25.862-14.579-35.197s-21.996-14.583-35.198-14.583h-99.556v248.893c0 39.606-15.733 77.589-43.738 105.594s-65.989 43.739-105.595 43.739h-99.556c-39.605 0-77.588-15.734-105.594-43.739s-43.739-65.988-43.739-105.594v-248.893h-99.555c-13.202 0-25.863 5.248-35.198 14.583s-14.58 21.999-14.58 35.197v435.556c0.009 7.067 1.523 14.053 4.442 20.489s7.173 12.18 12.483 16.844l298.667 261.333c9.084 7.98 20.762 12.381 32.853 12.381s23.77-4.401 32.853-12.381l298.667-261.333c5.309-4.664 9.565-10.406 12.483-16.844s4.432-13.422 4.441-20.489v-435.556z" />
<glyph unicode="&#xe90c;" glyph-name="movie" d="M909.73 917.333h-796.445c-54.905 0-99.556-44.651-99.556-99.556v-696.888c0-54.905 44.651-99.556 99.556-99.556h796.445c54.903 0 99.558 44.651 99.558 99.556v696.888c0 54.905-44.655 99.556-99.558 99.556zM909.781 618.667c-0.051 0-0.051 0 0 0h-23.151l-132.756 199.111h155.855l0.051-199.111zM388.855 618.667l-132.757 199.111h129.223l132.757-199.111h-129.223zM637.744 618.667l-132.757 199.111h129.223l132.757-199.111h-129.223zM113.285 817.777h23.147l132.757-199.111h-155.904v199.111zM113.285 120.889v398.222h796.445l0.102-398.222h-796.547zM411.959 170.667l273.777 149.333-273.777 149.333v-298.667z" />
<glyph unicode="&#xe90d;" glyph-name="others" d="M601.795 196.923c9.19 0 17.231 3.446 24.123 10.338s10.338 14.933 10.338 24.123c0 9.19-3.446 17.231-10.338 24.123s-14.933 10.338-24.123 10.338c-9.189 0-17.231-3.446-24.123-10.338s-10.338-14.933-10.338-24.123c0-9.19 3.446-17.231 10.338-24.123s14.934-10.338 24.123-10.338zM728.154 196.923c9.19 0 17.231 3.446 24.123 10.338s10.338 14.933 10.338 24.123c0 9.19-3.446 17.231-10.338 24.123s-14.933 10.338-24.123 10.338c-9.19 0-17.231-3.446-24.123-10.338s-10.338-14.933-10.338-24.123c0-9.19 3.446-17.231 10.338-24.123s14.933-10.338 24.123-10.338zM854.512 196.923c9.192 0 17.235 3.446 24.127 10.338s10.335 14.933 10.335 24.123c0 9.19-3.442 17.231-10.335 24.123s-14.935 10.338-24.127 10.338c-9.192 0-17.227-3.446-24.119-10.338s-10.342-14.933-10.342-24.123c0-9.19 3.45-17.231 10.342-24.123s14.927-10.338 24.119-10.338zM130.821 93.538c-25.272 0-46.898 8.988-64.88 26.971s-26.987 39.624-27.018 64.927v643.282c0 25.272 9.006 46.899 27.018 64.88s39.638 26.987 64.88 27.018h643.282c25.272 0 46.917-9.006 64.924-27.018 18.015-18.012 27.002-39.638 26.971-64.88v-229.743c0-13.019-4.411-23.94-13.233-32.762s-19.724-13.218-32.713-13.188c-12.989 0.031-23.891 4.442-32.715 13.233-8.822 8.791-13.233 19.697-13.233 32.716v229.743h-643.282v-643.282h229.743c13.019 0 23.94-4.411 32.762-13.233s13.218-19.728 13.188-32.716c-0.031-12.991-4.442-23.909-13.233-32.762s-19.697-13.249-32.716-13.186h-229.743zM130.821 231.385v0zM222.718 323.282c0-13.019 4.411-23.94 13.233-32.762s19.728-13.218 32.716-13.188h95.343c13.019 0 23.94 4.411 32.762 13.233s13.218 19.728 13.188 32.716c-0.031 12.988-4.427 23.893-13.188 32.715s-19.681 13.233-32.762 13.233h-95.343c-13.019 0-23.924-4.411-32.716-13.233s-13.203-19.727-13.233-32.715zM222.718 507.077c0-13.019 4.411-23.94 13.233-32.762s19.728-13.217 32.716-13.187h229.743c13.019 0 23.94 4.411 32.762 13.233s13.218 19.727 13.188 32.715c-0.031 12.988-4.442 23.893-13.233 32.715s-19.697 13.233-32.716 13.233h-229.743c-13.019 0-23.924-4.411-32.716-13.233s-13.203-19.727-13.233-32.715zM222.718 690.872c0-13.018 4.411-23.939 13.233-32.761s19.728-13.218 32.716-13.188h367.589c13.019 0 23.94 4.411 32.762 13.233s13.218 19.727 13.188 32.715c-0.031 12.988-4.442 23.894-13.233 32.716s-19.697 13.233-32.716 13.233h-367.589c-13.019 0-23.924-4.411-32.716-13.233s-13.203-19.728-13.233-32.716zM728.154 1.638c-63.562 0-117.736 22.41-162.521 67.222-44.784 44.82-67.193 98.992-67.223 162.525s22.378 117.706 67.223 162.521c44.846 44.815 99.019 67.223 162.521 67.223s117.694-22.408 162.569-67.223c44.875-44.815 67.269-98.989 67.174-162.521s-22.496-117.721-67.222-162.564c-44.725-44.851-98.895-67.237-162.521-67.182z" />
<glyph unicode="&#xe90e;" glyph-name="profile" d="M512 416c-135.253 0-245.333 110.080-245.333 245.333s110.080 245.333 245.333 245.333c135.253 0 245.333-110.080 245.333-245.333s-110.080-245.333-245.333-245.333zM512 842.667c-99.84 0-181.333-81.493-181.333-181.333s81.493-181.333 181.333-181.333c99.84 0 181.333 81.493 181.333 181.333s-81.493 181.333-181.333 181.333zM878.511-10.667c-17.493 0-32 14.507-32 32 0 147.2-150.182 266.667-334.502 266.667-184.322 0-334.508-119.467-334.508-266.667 0-17.493-14.507-32-32-32s-32 14.507-32 32c0 182.187 178.773 330.667 398.508 330.667 219.733 0 398.502-148.48 398.502-330.667 0-17.493-14.507-32-32-32z" />
<glyph unicode="&#xe90f;" glyph-name="search" d="M490.667 32c-241.067 0-437.333 196.267-437.333 437.333s196.267 437.333 437.333 437.333c241.067 0 437.333-196.267 437.333-437.333s-196.267-437.333-437.333-437.333zM490.667 842.667c-206.080 0-373.333-167.68-373.333-373.333s167.253-373.333 373.333-373.333c206.080 0 373.333 167.68 373.333 373.333s-167.253 373.333-373.333 373.333zM938.662-10.662c-8.107 0-16.213 2.987-22.613 9.387l-85.333 85.333c-12.373 12.373-12.373 32.853 0 45.227s32.853 12.373 45.227 0l85.333-85.333c12.373-12.373 12.373-32.853 0-45.227-6.4-6.4-14.507-9.387-22.613-9.387z" />
<glyph unicode="&#xe910;" glyph-name="selected-circle" d="M512-64c-282.77 0-512 229.229-512 512s229.23 512 512 512c282.771 0 512-229.23 512-512s-229.229-512-512-512zM790.63 571.661c12.493 12.497 12.493 32.758 0 45.255-12.499 12.497-32.762 12.497-45.261 0l-303.859-303.86-123.951 154.938c-11.040 13.8-31.178 16.038-44.978 4.998s-16.038-31.178-4.998-44.978l168.62-210.778 354.427 354.426z" />
<glyph unicode="&#xe911;" glyph-name="shopping" d="M744.755 396.8c38.389 0 72.172 20.992 89.575 52.736l183.244 332.288c4.318 7.76 6.528 16.514 6.426 25.393-0.111 8.879-2.534 17.576-7.031 25.231s-10.914 14.002-18.62 18.414c-7.706 4.412-16.427 6.735-25.301 6.739h-757.555l-48.114 102.4h-167.378v-102.4h102.372l184.27-388.608-69.101-124.928c-37.366-68.608 11.773-152.064 89.575-152.064h614.228v102.4h-614.228l56.305 102.4h381.335zM264.119 755.2h621.905l-141.269-256h-359.325l-121.311 256zM307.116 140.8c-56.305 0-101.86-46.080-101.86-102.4s45.555-102.4 101.86-102.4c56.305 0 102.372 46.080 102.372 102.4s-46.067 102.4-102.372 102.4zM818.975 140.8c-56.305 0-101.86-46.080-101.86-102.4s45.555-102.4 101.86-102.4c56.306 0 102.369 46.080 102.369 102.4s-46.063 102.4-102.369 102.4z" />
<glyph unicode="&#xe912;" glyph-name="sport" d="M810.669 704h-85.338c-47.059 0-85.331-38.272-85.331-85.333v-128h-256v128c0 47.061-38.272 85.333-85.333 85.333h-85.334c-47.061 0-85.333-38.272-85.333-85.333v-341.334c0-47.061 38.272-85.333 85.333-85.333h85.334c47.061 0 85.333 38.272 85.333 85.333v128h256v-128c0-47.061 38.272-85.333 85.331-85.333h85.338c47.059 0 85.331 38.272 85.331 85.333v341.334c0 47.061-38.272 85.333-85.331 85.333v0zM213.333 277.333v341.334h85.334l0.042-341.334h-85.376zM725.331 277.333v341.334h85.338l0.038-341.334h-85.376zM938.669 533.333h85.331v-170.666h-85.331v170.666zM0 533.333h85.333v-170.666h-85.333v170.666z" />
<glyph unicode="&#xe913;" glyph-name="studying" d="M944.201 574.354l-42.672 23.466-383.997 213.334h-4.694c-2.616 1.106-5.33 1.963-8.106 2.56h-15.786c-2.915-0.597-5.771-1.454-8.534-2.56h-4.694l-384-213.334c-6.566-3.721-12.028-9.117-15.827-15.639s-5.802-13.934-5.802-21.481c0-7.548 2.002-14.96 5.802-21.481s9.261-11.918 15.827-15.639l106.24-58.88v-202.24c0-33.948 13.486-66.505 37.491-90.509s56.561-37.491 90.509-37.491h341.334c33.948 0 66.506 13.486 90.511 37.491s37.486 56.561 37.486 90.509v202.24l85.336 47.787v-122.027c0-11.316 4.498-22.168 12.5-30.17s18.849-12.496 30.164-12.496c11.315 0 22.17 4.495 30.171 12.496s12.5 18.854 12.5 30.17v146.774c-0.015 7.56-2.033 14.982-5.859 21.504s-9.311 11.911-15.901 15.616v0zM709.959 262.461c0-11.316-4.495-22.168-12.496-30.17s-18.854-12.496-30.17-12.496h-341.334c-11.316 0-22.168 4.495-30.17 12.496s-12.496 18.854-12.496 30.17v154.88l192.426-106.666 6.4-2.56h3.84c3.542-0.446 7.126-0.446 10.667 0 3.542-0.446 7.125-0.446 10.666 0h3.84c2.265 0.478 4.43 1.344 6.4 2.56l192.426 106.666v-154.88zM496.626 396.434l-296.107 164.694 296.107 164.693 296.103-164.693-296.103-164.694z" />
<glyph unicode="&#xe914;" glyph-name="tag" d="M514.987 22.182c-60.16 0-120.748 23.040-166.401 68.693l-193.28 193.28c-46.933 46.933-71.68 111.787-68.693 177.92l10.24 213.335c4.693 101.973 85.333 182.613 187.733 187.733l213.335 10.24c66.133 2.56 130.987-21.76 177.92-68.693l193.28-193.28c91.733-91.735 91.733-241.495 0-333.229l-187.307-187.307c-46.080-45.653-106.24-68.693-166.827-68.693zM200.532 329.809l193.28-193.28c32.427-32.427 75.521-50.347 121.175-50.347s88.747 17.92 121.173 50.347l187.307 187.307c32.427 32.427 50.347 75.52 50.347 121.173s-17.92 88.749-50.347 121.175l-193.28 193.28c-34.133 34.133-81.493 52.48-129.28 49.92l-213.335-10.24c-69.547-2.987-123.733-57.173-127.147-126.293l-10.24-213.335c-2.133-48.213 16.213-95.573 50.347-129.707zM405.333 416c-76.373 0-138.667 62.293-138.667 138.667s62.293 138.667 138.667 138.667c76.373 0 138.667-62.293 138.667-138.667s-62.293-138.667-138.667-138.667zM405.333 629.333c-40.96 0-74.667-33.707-74.667-74.667s33.707-74.667 74.667-74.667c40.96 0 74.667 33.707 74.667 74.667s-33.707 74.667-74.667 74.667z" />
<glyph unicode="&#xe915;" glyph-name="timer" d="M512-10.667c-223.573 0-405.333 181.76-405.333 405.333s181.76 405.333 405.333 405.333c223.573 0 405.333-181.76 405.333-405.333s-181.76-405.333-405.333-405.333zM512 736c-188.16 0-341.333-153.173-341.333-341.333s153.173-341.333 341.333-341.333c188.16 0 341.333 153.173 341.333 341.333s-153.173 341.333-341.333 341.333zM512 373.333c-17.493 0-32 14.507-32 32v213.333c0 17.493 14.507 32 32 32s32-14.507 32-32v-213.333c0-17.493-14.507-32-32-32zM640 842.667h-256c-17.493 0-32 14.507-32 32s14.507 32 32 32h256c17.493 0 32-14.507 32-32s-14.507-32-32-32z" />
<glyph unicode="&#xe916;" glyph-name="up" d="M19.995 325.601c-26.66-26.66-26.66-69.884 0-96.544s69.884-26.66 96.544 0l361.329 361.328 361.328-361.328c26.66-26.66 69.884-26.66 96.544 0s26.66 69.884 0 96.544l-409.6 409.6c-26.66 26.66-69.884 26.66-96.544 0l-409.6-409.6z" />
<glyph unicode="&#xe917;" glyph-name="work" d="M379.285 886.857c-52.628 0-96.182-43.556-96.182-96.183v-31.873h-159.867c-52.647 0-95.933-43.475-95.933-96.12v-63.997c0-36.348 20.556-69.546 52.935-85.745 3.608-1.805 7.204-3.632 10.812-5.437v-356.667c0-52.626 43.555-96.183 96.182-96.183h639.845c52.626 0 96.183 43.557 96.183 96.183v356.667c3.621 1.813 7.248 3.624 10.869 5.437 32.388 16.197 52.875 49.398 52.875 85.745v63.997c0 52.645-43.227 96.12-95.868 96.12h-159.931v31.873c0 52.627-43.492 96.183-96.12 96.183h-255.8zM379.285 822.861h255.8c18.281 0 32.123-13.905 32.123-32.186v-31.873h-320.108v31.873c0 18.281 13.904 32.186 32.186 32.186zM123.236 694.804h767.9c18.059 0 32.124-14.059 32.124-32.123v-63.997c0-12.101-6.992-23.148-17.942-28.624-127.941-64.010-255.912-127.948-383.853-191.99-9.092-4.547-19.531-4.547-28.624 0-127.941 64.042-255.849 127.98-383.792 191.99-10.949 5.479-17.999 16.523-17.999 28.624v63.997c0 18.064 14.121 32.123 32.186 32.123zM507.154 502.752c-17.672 0-31.998-14.325-31.999-31.998s14.326-31.999 31.999-31.999c17.673 0 31.999 14.326 31.999 31.999s-14.326 31.998-31.999 31.998zM155.11 475.504c102.995-51.523 205.948-103.073 308.921-154.617 27.052-13.542 59.194-13.542 86.246 0 102.977 51.546 205.984 103.093 308.984 154.617v-324.669c0-18.278-13.904-32.124-32.183-32.124h-639.845c-18.279 0-32.123 13.846-32.123 32.124v324.669z" />
</font>
</defs>
</svg>
